<?xml version="1.0" encoding="UTF-8"?>
<svg xmlns="http://www.w3.org/2000/svg" viewBox="0 0 250 250" width="250px" height="250px">
<g id="surface39491868">
<path style=" stroke:none;fill-rule:nonzero;fill:rgb(81.176472%,81.176472%,76.862746%);fill-opacity:1;" d="M 124.648438 10.011719 C 124.097656 10.011719 123.546875 10.101562 123.019531 10.285156 L 18.359375 46.710938 C 16.140625 47.480469 14.75 49.695312 15.039062 52.03125 L 31.582031 187.648438 C 31.777344 189.25 32.726562 190.664062 34.152344 191.4375 L 122.394531 239.394531 C 123.132812 239.800781 123.957031 240 124.777344 240 C 125.601562 240 126.433594 239.792969 127.175781 239.386719 L 215.871094 190.769531 C 217.277344 189.996094 218.238281 188.585938 218.425781 186.992188 L 234.960938 51.386719 C 235.25 49.042969 233.847656 46.804688 231.601562 46.046875 L 126.269531 10.265625 C 125.746094 10.089844 125.199219 10.007812 124.648438 10.011719 Z M 125 35 L 190 175 L 167.8125 175 L 153.90625 145.039062 L 96.09375 145.039062 L 82.1875 175 L 60 175 Z M 125 82.5 L 105.402344 125 L 144.597656 125 Z M 125 82.5 "/>
</g>
</svg>
