<?xml version="1.0" encoding="UTF-8"?>
<svg xmlns="http://www.w3.org/2000/svg" viewBox="0 0 256 256" width="256px" height="256px">
<g id="surface39520362">
<path style=" stroke:none;fill-rule:nonzero;fill:rgb(81.176472%,81.176472%,76.862746%);fill-opacity:1;" d="M 40 40 L 40 216 L 216 216 L 216 40 Z M 56 56 L 200 56 L 200 200 L 56 200 Z M 88 80 L 88 175.921875 C 135.441406 175.921875 144.933594 176.5625 153.8125 173.921875 C 159.011719 172.320312 173.25 167.203125 173.25 149.203125 C 173.25 141.203125 170.851562 127.671875 155.171875 124.3125 L 155.171875 124.078125 L 152.21875 124.078125 C 160.21875 120.476562 165.25 113.6875 165.25 103.6875 C 165.25 101.128906 165.96875 80 137.96875 80 Z M 104 96 L 136 96 C 148.070312 96 149.25 102.824219 149.25 107.921875 C 149.25 120.355469 136.238281 120 136 120 L 104 120 Z M 104 136 L 142.078125 136 C 156.964844 136 157.25 145.410156 157.25 147.84375 C 157.25 160.324219 144.355469 160 142.796875 160 L 104 160 Z M 104 136 "/>
</g>
</svg>
