<?xml version="1.0" encoding="UTF-8"?>
<svg xmlns="http://www.w3.org/2000/svg" viewBox="0 0 250 250" width="250px" height="250px">
<g id="surface39492249">
<path style=" stroke:none;fill-rule:nonzero;fill:rgb(81.176472%,81.176472%,76.862746%);fill-opacity:1;" d="M 219.550781 60.019531 L 135.351562 12.695312 C 128.964844 9.121094 121.035156 9.121094 114.648438 12.695312 L 30.449219 60.019531 C 24.003906 63.632812 20 70.410156 20 77.675781 L 20 172.324219 C 20 179.589844 24.003906 186.367188 30.449219 189.980469 L 114.648438 237.304688 C 117.851562 239.101562 121.425781 240 125 240 C 128.574219 240 132.148438 239.101562 135.351562 237.304688 L 219.550781 189.980469 C 225.996094 186.367188 230 179.589844 230 172.324219 L 230 77.675781 C 230 70.410156 225.996094 63.632812 219.550781 60.019531 Z M 125 185 C 91.914062 185 65 158.085938 65 125 C 65 91.914062 91.914062 65 125 65 C 143.90625 65 161.367188 73.769531 172.714844 88.710938 L 150.800781 101.386719 C 144.21875 94.179688 134.863281 90 125 90 C 105.703125 90 90 105.703125 90 125 C 90 144.296875 105.703125 160 125 160 C 134.863281 160 144.21875 155.820312 150.800781 148.613281 L 172.714844 161.289062 C 161.367188 176.230469 143.90625 185 125 185 Z M 185 130 L 175 130 L 175 140 L 165 140 L 165 130 L 155 130 L 155 120 L 165 120 L 165 110 L 175 110 L 175 120 L 185 120 Z M 220 130 L 210 130 L 210 140 L 200 140 L 200 130 L 190 130 L 190 120 L 200 120 L 200 110 L 210 110 L 210 120 L 220 120 Z M 220 130 "/>
</g>
</svg>
