<?xml version="1.0" encoding="UTF-8"?>
<svg xmlns="http://www.w3.org/2000/svg" viewBox="0 0 250 250" width="250px" height="250px">
<g id="surface39492819">
<path style=" stroke:none;fill-rule:nonzero;fill:rgb(81.176472%,81.176472%,76.862746%);fill-opacity:1;" d="M 216.679688 20 L 33.339844 20 C 25.976562 20 20 25.976562 20 33.339844 L 20 216.660156 C 20 224.023438 25.976562 230 33.339844 230 L 216.660156 230 C 224.023438 230 230 224.023438 230 216.679688 L 230 33.339844 C 230 25.976562 224.023438 20 216.679688 20 Z M 135 180.917969 C 135 200.898438 123.28125 210 106.171875 210 C 90.703125 210 79.550781 199.628906 75 190 L 90.722656 180.488281 C 93.75 185.859375 98.359375 190 105 190 C 111.347656 190 115 187.519531 115 177.871094 L 115 115 L 135 115 Z M 178.378906 210 C 160.664062 210 150.605469 201.074219 145 190 L 160 180 C 164.082031 186.679688 168.535156 193.066406 177.949219 193.066406 C 185.859375 193.066406 190 189.121094 190 183.652344 C 190 177.128906 185.703125 174.804688 177.011719 170.996094 L 172.246094 168.945312 C 158.476562 163.085938 149.316406 155.742188 149.316406 140.195312 C 149.316406 125.898438 160.234375 115 177.265625 115 C 189.394531 115 198.105469 119.21875 204.394531 130.273438 L 189.550781 139.824219 C 186.269531 133.945312 182.753906 131.640625 177.265625 131.640625 C 171.679688 131.640625 168.144531 135.195312 168.144531 139.824219 C 168.144531 145.546875 171.679688 147.851562 179.863281 151.40625 L 184.628906 153.457031 C 200.859375 160.390625 210 167.480469 210 183.417969 C 210 200.585938 196.503906 210 178.378906 210 Z M 178.378906 210 "/>
</g>
</svg>
