<?xml version="1.0" encoding="UTF-8"?>
<svg xmlns="http://www.w3.org/2000/svg" viewBox="0 0 250 250" width="250px" height="250px">
<g id="surface38810881">
<path style=" stroke:none;fill-rule:nonzero;fill:rgb(81.176472%,81.176472%,76.862746%);fill-opacity:1;" d="M 122.5 10 C 79.003906 10 70 32.460938 70 45.46875 L 70 70 L 120 70 L 120 75 L 45.46875 75 C 28.964844 75 10 88.007812 10 125 C 10 161.992188 28.964844 175 45.46875 175 L 75 175 L 75 145 C 75 134.003906 84.003906 125 95 125 L 155 125 C 163.496094 125 170 118.496094 170 110 L 170 45.46875 C 170 27.96875 153.496094 10 122.5 10 Z M 100 35 C 105.507812 35 110 39.492188 110 45 C 110 50.507812 105.507812 55 100 55 C 94.492188 55 90 50.507812 90 45 C 90 39.492188 94.492188 35 100 35 Z M 175 75 L 175 110 C 175 120.996094 165.996094 130 155 130 L 95 130 C 86.503906 130 80 136.503906 80 145 L 80 204.53125 C 80 222.03125 96.503906 240 127.5 240 C 170.996094 240 180 217.539062 180 204.53125 L 180 180 L 130 180 L 130 175 L 204.53125 175 C 221.035156 175 240 161.992188 240 125 C 240 88.007812 221.035156 75 204.53125 75 Z M 150 195 C 155.507812 195 160 199.492188 160 205 C 160 210.507812 155.507812 215 150 215 C 144.492188 215 140 210.507812 140 205 C 140 199.492188 144.492188 195 150 195 Z M 150 195 "/>
</g>
</svg>
