<?xml version="1.0" encoding="UTF-8"?>
<svg xmlns="http://www.w3.org/2000/svg" viewBox="0 0 192 192" width="192px" height="192px">
<g id="surface38811438">
<path style=" stroke:none;fill-rule:nonzero;fill:rgb(81.176472%,81.176472%,76.862746%);fill-opacity:1;" d="M 24 40 L 24 152 C 24 160.839844 31.160156 168 40 168 L 152 168 C 160.839844 168 168 160.839844 168 152 L 168 40 C 168 31.160156 160.839844 24 152 24 L 40 24 C 31.160156 24 24 31.160156 24 40 Z M 109.328125 99.609375 L 92.382812 99.609375 L 92.382812 152 L 78.726562 152 L 78.726562 99.609375 L 62.136719 99.609375 L 62.136719 88 L 109.328125 88 Z M 111.984375 149.007812 L 111.984375 135 C 111.984375 135 119.632812 140.769531 128.816406 140.769531 C 138 140.769531 137.640625 134.769531 137.640625 133.945312 C 137.640625 125.230469 111.632812 125.230469 111.632812 105.9375 C 111.632812 79.6875 149.527344 90.046875 149.527344 90.046875 L 149.054688 102.519531 C 149.054688 102.519531 142.703125 98.28125 135.519531 98.28125 C 128.34375 98.28125 125.753906 101.695312 125.753906 105.34375 C 125.753906 114.761719 152 113.816406 152 132.769531 C 152 161.953125 111.984375 149.007812 111.984375 149.007812 Z M 111.984375 149.007812 "/>
</g>
</svg>
